<svg xmlns="http://www.w3.org/2000/svg" viewBox="0 0 32 32">
  <!-- Pixel art 'IR' monogram -->
  <rect width="32" height="32" fill="#07070b" rx="4"/>
  <!-- I -->
  <rect x="6" y="6" width="4" height="4" fill="#22d3ee"/>
  <rect x="6" y="10" width="4" height="4" fill="#22d3ee"/>
  <rect x="6" y="14" width="4" height="4" fill="#22d3ee"/>
  <rect x="6" y="18" width="4" height="4" fill="#22d3ee"/>
  <rect x="6" y="22" width="4" height="4" fill="#22d3ee"/>
  <!-- R -->
  <rect x="14" y="6" width="4" height="4" fill="#a78bfa"/>
  <rect x="18" y="6" width="4" height="4" fill="#a78bfa"/>
  <rect x="22" y="6" width="4" height="4" fill="#a78bfa"/>
  <rect x="14" y="10" width="4" height="4" fill="#a78bfa"/>
  <rect x="22" y="10" width="4" height="4" fill="#a78bfa"/>
  <rect x="14" y="14" width="4" height="4" fill="#a78bfa"/>
  <rect x="18" y="14" width="4" height="4" fill="#a78bfa"/>
  <rect x="22" y="14" width="4" height="4" fill="#a78bfa"/>
  <rect x="14" y="18" width="4" height="4" fill="#a78bfa"/>
  <rect x="18" y="18" width="4" height="4" fill="#a78bfa"/>
  <rect x="14" y="22" width="4" height="4" fill="#a78bfa"/>
  <rect x="22" y="22" width="4" height="4" fill="#a78bfa"/>
</svg>
